#N canvas 495 137 1314 707 10;
#X msg 56 86 close;
#X msg 27 37 devices;
#X text 91 60 <- open the port where your Arduino is connected \, mine
is 4;
#X text 86 36 <- click to list the devices available;
#X obj 166 211 route open;
#X obj 76 140 r toArduino;
#X obj 500 474 f;
#X obj 584 474 f;
#X obj 668 472 f;
#X obj 166 234 tgl 15 0 empty empty empty 17 7 0 10 #fcfcfc #000000
#000000 0 1;
#X floatatom 536 413 5 0 0 0 - - - 0;
#X floatatom 620 411 5 0 0 0 - - - 0;
#X floatatom 704 411 5 0 0 0 - - - 0;
#X obj 369 572 s toArduino;
#X obj 515 441 clip 0 255;
#X obj 599 437 clip 0 255;
#X obj 683 437 clip 0 255;
#N canvas 842 389 450 300 reportInfo 0;
#X msg 75 95 info;
#X obj 74 75 metro 1000;
#X obj 74 35 loadbang;
#X obj 74 56 tgl 15 0 empty empty empty 17 7 0 10 #fcfcfc #000000 #000000
0 1;
#X obj 75 121 outlet;
#X connect 0 0 4 0;
#X connect 1 0 0 0;
#X connect 2 0 3 0;
#X connect 3 0 1 0;
#X restore 112 164 pd reportInfo;
#X text 195 164 <- keeps track of if its connected;
#X text 191 234 <- only send data when connected;
#X text 930 438 <- limits range to 0-255 (think PWM output);
#X text 442 573 <- this goes into the comport object;
#X text 465 589 above (via [r toArduino]);
#X text 150 138 <- route data to comport;
#X text 229 328 this determines the;
#X text 229 341 order they are sent;
#X text 532 29 by Jiffer Harriman;
#X text 532 44 Creative Commons Open Source;
#X msg 44 61 open 3;
#X msg 66 108 open \$1;
#X floatatom 135 107 5 0 0 0 - - - 0;
#X obj 417 476 f;
#X floatatom 453 415 5 0 0 0 - - - 0;
#X obj 432 443 clip 0 255;
#X obj 333 477 f;
#X floatatom 369 416 5 0 0 0 - - - 0;
#X obj 348 444 clip 0 255;
#X obj 249 477 f;
#X floatatom 285 416 5 0 0 0 - - - 0;
#X obj 264 444 clip 0 255;
#X text 286 392 out 1;
#X text 381 391 out 2;
#X text 450 392 out 3;
#X text 539 390 out 4;
#X text 620 393 out 5;
#X obj 166 480 f;
#X floatatom 202 419 5 0 0 0 - - - 0;
#X obj 181 447 clip 0 255;
#X text 198 395 out 0;
#X text 702 391 out 6;
#X text 932 473 <- 0-255 is also the limit of the comport format here
which is a two digit hex number \, so anything over 255 will wrap around
(ie. 256 = 0), f 44;
#X obj 166 299 until;
#X obj 166 320 f;
#X obj 194 320 + 1;
#X text 933 541 you can monitor the communications going to the arduino
with a serial port monitor (not the arduino's...), f 44;
#X obj 30 654 print incoming;
#X obj 751 476 f;
#X obj 835 474 f;
#X floatatom 787 413 5 0 0 0 - - - 0;
#X floatatom 871 413 5 0 0 0 - - - 0;
#X obj 766 439 clip 0 255;
#X obj 850 439 clip 0 255;
#X obj 166 362 sel 0 1 2 3 4 5 6 7 8, f 126;
#X msg 166 278 9;
#X obj 166 341 mod 9;
#X text 783 393 out 7;
#X text 869 391 out 8;
#X floatatom 602 161 5 0 0 0 - - - 0;
#X obj 602 181 t f f, f 12;
#X obj 602 202 / 255;
#X obj 602 223 int;
#X floatatom 602 244 5 0 0 0 - - - 0;
#X obj 671 223 int;
#X floatatom 671 244 5 0 0 0 - - - 0;
#X obj 671 202 mod 255;
#X obj 602 264 * 255;
#X obj 602 285 +, f 12;
#X floatatom 602 306 5 0 0 0 - - - 0;
#X text 532 13 Modification of a patch;
#X text 531 61 Jaime Oliver La Rosa / la.rosa@nyu.edu;
#X obj 77 564 serial_print any;
#X floatatom 736 159 5 0 0 0 - - - 0;
#X obj 736 179 t f f, f 12;
#X obj 736 200 / 255;
#X obj 736 221 int;
#X floatatom 736 242 5 0 0 0 - - - 0;
#X obj 805 221 int;
#X floatatom 805 242 5 0 0 0 - - - 0;
#X obj 805 200 mod 255;
#X obj 736 262 * 255;
#X obj 736 283 +, f 12;
#X floatatom 736 304 5 0 0 0 - - - 0;
#X floatatom 882 156 5 0 0 0 - - - 0;
#X obj 882 176 t f f, f 12;
#X obj 882 197 / 255;
#X obj 882 218 int;
#X floatatom 882 239 5 0 0 0 - - - 0;
#X obj 951 218 int;
#X floatatom 951 239 5 0 0 0 - - - 0;
#X obj 951 197 mod 255;
#X obj 882 259 * 255;
#X obj 882 280 +, f 12;
#X floatatom 882 301 5 0 0 0 - - - 0;
#X floatatom 1030 155 5 0 0 0 - - - 0;
#X obj 1030 175 t f f, f 12;
#X obj 1030 196 / 255;
#X obj 1030 217 int;
#X floatatom 1030 238 5 0 0 0 - - - 0;
#X obj 1099 217 int;
#X floatatom 1099 238 5 0 0 0 - - - 0;
#X obj 1099 196 mod 255;
#X obj 1030 258 * 255;
#X obj 1030 279 +, f 12;
#X floatatom 1030 300 5 0 0 0 - - - 0;
#X text 576 138 x;
#X text 706 138 y;
#X text 850 138 t1;
#X text 1001 140 t2;
#X obj 32 628 spigot;
#X obj 80 628 tgl 15 0 empty empty empty 17 7 0 10 #fcfcfc #000000
#000000 0 1;
#X text 98 627 print;
#X obj 192 627 unpack f f f f f;
#X floatatom 168 657 5 0 0 0 - - - 0;
#X floatatom 214 658 5 0 0 0 - - - 0;
#X obj 166 256 metro 30;
#X floatatom 262 655 5 0 0 0 - - - 0;
#X floatatom 308 656 5 0 0 0 - - - 0;
#X floatatom 354 656 5 0 0 0 - - - 0;
#X floatatom 231 258 5 0 0 0 - - - 0;
#X text 266 255 <- send every 30 ms (to avoid errors \, make the frequency
of setting larger than the reading freq in the arduino), f 40;
#X text 12 527 get this object from Alexandros Drymonitis at: https://github.com/alexdrymonitis/Arduino_Pd
;
#X text 181 191 <- get comport from deken by using the menu hrlp/find
externals, f 63;
#X text 1189 141 0 - id 1 - x1 2 - x2 3 - y1 4 - y2 5 - t1 6 - t1 7
- t2 8 - t2, f 6;
#X floatatom 504 162 5 0 0 0 - - - 0;
#X text 485 139 id;
#X obj 73 191 comport 3 115200;
#X connect 0 0 135 0;
#X connect 1 0 135 0;
#X connect 4 0 9 0;
#X connect 5 0 135 0;
#X connect 6 0 13 0;
#X connect 7 0 13 0;
#X connect 8 0 13 0;
#X connect 9 0 124 0;
#X connect 10 0 14 0;
#X connect 11 0 15 0;
#X connect 12 0 16 0;
#X connect 14 0 6 1;
#X connect 15 0 7 1;
#X connect 16 0 8 1;
#X connect 17 0 135 0;
#X connect 28 0 135 0;
#X connect 29 0 135 0;
#X connect 30 0 29 0;
#X connect 31 0 13 0;
#X connect 32 0 33 0;
#X connect 33 0 31 1;
#X connect 34 0 13 0;
#X connect 35 0 36 0;
#X connect 36 0 34 1;
#X connect 37 0 13 0;
#X connect 38 0 39 0;
#X connect 39 0 37 1;
#X connect 45 0 13 0;
#X connect 46 0 47 0;
#X connect 47 0 45 1;
#X connect 51 0 52 0;
#X connect 52 0 53 0;
#X connect 52 0 64 0;
#X connect 53 0 52 1;
#X connect 56 0 13 0;
#X connect 57 0 13 0;
#X connect 58 0 60 0;
#X connect 59 0 61 0;
#X connect 60 0 56 1;
#X connect 61 0 57 1;
#X connect 62 0 45 0;
#X connect 62 1 37 0;
#X connect 62 2 34 0;
#X connect 62 3 31 0;
#X connect 62 4 6 0;
#X connect 62 5 7 0;
#X connect 62 6 8 0;
#X connect 62 7 56 0;
#X connect 62 8 57 0;
#X connect 63 0 51 0;
#X connect 64 0 62 0;
#X connect 67 0 68 0;
#X connect 68 0 69 0;
#X connect 68 1 74 0;
#X connect 69 0 70 0;
#X connect 70 0 71 0;
#X connect 71 0 75 0;
#X connect 71 0 38 0;
#X connect 72 0 73 0;
#X connect 73 0 76 1;
#X connect 73 0 35 0;
#X connect 74 0 72 0;
#X connect 75 0 76 0;
#X connect 76 0 77 0;
#X connect 80 0 118 0;
#X connect 80 0 121 0;
#X connect 81 0 82 0;
#X connect 82 0 83 0;
#X connect 82 1 88 0;
#X connect 83 0 84 0;
#X connect 84 0 85 0;
#X connect 85 0 89 0;
#X connect 85 0 32 0;
#X connect 86 0 87 0;
#X connect 87 0 90 1;
#X connect 87 0 10 0;
#X connect 88 0 86 0;
#X connect 89 0 90 0;
#X connect 90 0 91 0;
#X connect 92 0 93 0;
#X connect 93 0 94 0;
#X connect 93 1 99 0;
#X connect 94 0 95 0;
#X connect 95 0 96 0;
#X connect 96 0 100 0;
#X connect 96 0 11 0;
#X connect 97 0 98 0;
#X connect 98 0 101 1;
#X connect 98 0 12 0;
#X connect 99 0 97 0;
#X connect 100 0 101 0;
#X connect 101 0 102 0;
#X connect 103 0 104 0;
#X connect 104 0 105 0;
#X connect 104 1 110 0;
#X connect 105 0 106 0;
#X connect 106 0 107 0;
#X connect 107 0 111 0;
#X connect 107 0 58 0;
#X connect 108 0 109 0;
#X connect 109 0 112 1;
#X connect 109 0 59 0;
#X connect 110 0 108 0;
#X connect 111 0 112 0;
#X connect 112 0 113 0;
#X connect 118 0 55 0;
#X connect 119 0 118 1;
#X connect 121 0 122 0;
#X connect 121 1 123 0;
#X connect 121 2 125 0;
#X connect 121 3 126 0;
#X connect 121 4 127 0;
#X connect 124 0 63 0;
#X connect 128 0 124 1;
#X connect 133 0 46 0;
#X connect 135 0 80 0;
#X connect 135 1 4 0;
